<?xml version="1.0" encoding="UTF-8"?>
<svg width="108" height="108" viewBox="0 0 108 108" fill="none" xmlns="http://www.w3.org/2000/svg">
  <defs>
    <linearGradient id="shipGradient" x1="0%" y1="0%" x2="100%" y2="100%">
      <stop offset="0%" style="stop-color:#ffffff;stop-opacity:1" />
      <stop offset="100%" style="stop-color:#e2e8f0;stop-opacity:1" />
    </linearGradient>
  </defs>
  
  <!-- Ship silhouette -->
  <g transform="translate(24, 25)">
    <!-- Ship hull -->
    <path d="M5 25 L55 25 Q60 25 60 20 L60 15 Q60 10 55 10 L50 10 L50 8 Q50 6 48 6 L45 6 L45 4 Q45 2 43 2 L17 2 Q15 2 15 4 L15 6 L12 6 Q10 6 10 8 L10 10 L8 10 Q5 10 5 12 L5 20 Q5 25 5 25 Z" fill="url(#shipGradient)"/>
    
    <!-- Ship details -->
    <rect x="12" y="4" width="2" height="6" fill="#cbd5e1"/>
    <rect x="17" y="6" width="2" height="4" fill="#cbd5e1"/>
    <rect x="22" y="5" width="2" height="5" fill="#cbd5e1"/>
    <rect x="27" y="6" width="2" height="4" fill="#cbd5e1"/>
    <rect x="32" y="7" width="2" height="3" fill="#cbd5e1"/>
    
    <!-- Mast -->
    <rect x="24" y="2" width="0.5" height="8" fill="#64748b"/>
    
    <!-- Flag -->
    <path d="M24.5 2 L24.5 4 L28 3.5 L24.5 3 Z" fill="#ef4444"/>
  </g>
  
  <!-- Anchor icon -->
  <g transform="translate(40, 50)">
    <circle cx="14" cy="7" r="6" fill="none" stroke="white" stroke-width="2"/>
    <line x1="14" y1="13" x2="14" y2="25" stroke="white" stroke-width="2"/>
    <path d="M7 22 Q7 25 10 25 L18 25 Q21 25 21 22" fill="none" stroke="white" stroke-width="2"/>
    <line x1="7" y1="22" x2="5" y2="20" stroke="white" stroke-width="2"/>
    <line x1="21" y1="22" x2="23" y2="20" stroke="white" stroke-width="2"/>
    <line x1="9" y1="17" x2="19" y2="17" stroke="white" stroke-width="1.5"/>
  </g>
</svg>